<?xml version="1.0" standalone="no"?>
<!DOCTYPE svg PUBLIC "-//W3C//DTD SVG 20010904//EN" "http://www.w3.org/TR/2001/REC-SVG-20010904/DTD/svg10.dtd">
<svg version="1.0" xmlns="http://www.w3.org/2000/svg" width="700pt" height="700pt" viewBox="0 0 700 700" preserveAspectRatio="xMidYMid meet">
  <g transform="translate(0,700) scale(0.1,-0.1)" fill="#000" stroke="none">
    <path d="M3529 6440 c-92 -26 -123 -81 -154 -272 -3 -18 -8 -46 -11 -61 -3
-16 -7 -38 -9 -50 -3 -30 -15 -94 -25 -147 -5 -25 -12 -61 -14 -80 -3 -19 -15
-87 -26 -150 -25 -138 -26 -145 -34 -190 -3 -19 -20 -111 -36 -205 -17 -93
-32 -181 -35 -195 -17 -100 -36 -209 -40 -230 -3 -14 -7 -41 -10 -60 -3 -19
-7 -46 -10 -60 -3 -14 -9 -50 -15 -80 -6 -30 -12 -64 -14 -76 -2 -11 -18 -103
-36 -205 -39 -230 -37 -219 -44 -249 -3 -14 -8 -41 -11 -60 -2 -19 -7 -46 -9
-60 -3 -14 -12 -65 -21 -115 -8 -49 -17 -103 -20 -120 -3 -16 -10 -52 -15 -80
-5 -27 -12 -66 -15 -85 -3 -19 -8 -48 -12 -65 -3 -16 -7 -39 -9 -50 -2 -19
-50 -295 -60 -345 -11 -59 -35 -193 -40 -228 -3 -20 -16 -95 -29 -167 -26
-139 -55 -307 -61 -340 -1 -11 -17 -99 -34 -195 -17 -96 -33 -186 -35 -200 -3
-14 -9 -46 -13 -72 -25 -129 35 -247 132 -263 14 -3 38 -7 54 -10 15 -3 155
-27 312 -55 157 -28 295 -52 306 -54 12 -3 37 -7 55 -10 19 -3 99 -17 179 -31
184 -33 260 -47 285 -50 11 -2 47 -8 80 -14 33 -6 72 -12 88 -15 15 -3 35 -7
45 -10 9 -3 35 -7 57 -11 22 -3 92 -15 155 -26 136 -24 230 -40 340 -59 99
-17 115 -20 140 -25 14 -3 39 -8 55 -10 17 -3 147 -26 290 -52 143 -25 286
-47 318 -47 56 -1 60 1 97 41 39 41 62 100 75 188 3 22 7 47 10 55 2 8 6 33
10 55 3 22 8 56 11 75 4 19 8 42 9 50 2 8 10 53 19 100 18 98 23 130 31 185 4
22 8 47 10 55 2 8 7 31 10 50 3 19 19 112 36 205 17 94 32 179 34 190 5 32 14
83 61 350 24 138 46 264 49 280 3 17 7 41 10 55 3 14 8 41 11 60 2 19 7 46 10
60 2 14 7 39 9 55 3 17 14 77 25 135 10 58 22 121 24 140 3 19 7 44 10 55 2
11 7 40 11 65 4 25 9 54 11 65 3 11 16 83 29 160 14 77 27 151 30 165 3 13 7
42 10 65 3 22 8 47 10 55 3 8 7 31 10 50 2 19 7 46 9 60 3 14 37 205 76 425
38 220 72 411 75 425 2 14 16 93 30 175 14 83 28 161 31 175 2 14 7 41 10 60
3 19 12 69 20 110 18 94 18 132 0 174 -18 44 -50 73 -89 80 -18 3 -43 8 -57
11 -14 3 -65 12 -115 21 -49 8 -101 17 -115 19 -14 3 -101 19 -195 35 -93 17
-183 33 -200 35 -16 3 -41 7 -55 10 -29 6 -36 7 -192 35 -65 11 -171 29 -235
40 -65 12 -131 23 -148 26 -16 3 -118 21 -225 40 -107 19 -258 46 -335 59
-143 26 -171 31 -215 40 -14 3 -41 7 -60 10 -19 2 -87 14 -150 25 -105 19
-437 76 -485 84 -11 2 -32 0 -46 -4z m1437 -1070 c2 -71 13 -180 19 -190 2 -4
7 -22 10 -41 20 -116 117 -391 237 -674 96 -225 152 -373 178 -472 57 -209 64
-393 25 -608 -29 -155 -137 -394 -286 -630 -58 -92 -57 -90 -65 -83 -3 4 6 24
20 47 14 22 26 43 26 45 0 3 13 27 28 53 75 129 164 379 189 528 3 17 9 50 13
75 15 80 4 306 -19 399 -49 192 -139 362 -283 531 -64 74 -235 236 -242 229
-2 -2 -6 -22 -10 -44 -3 -22 -8 -51 -10 -65 -3 -14 -12 -65 -21 -115 -20 -121
-23 -137 -41 -230 -8 -44 -17 -96 -20 -115 -3 -19 -11 -69 -19 -110 -8 -41
-17 -91 -20 -110 -3 -19 -7 -46 -10 -60 -3 -14 -7 -41 -10 -60 -3 -19 -8 -42
-10 -50 -3 -8 -7 -31 -9 -50 -3 -19 -23 -138 -45 -265 -23 -126 -43 -243 -46
-260 -3 -16 -12 -66 -20 -110 -8 -44 -17 -96 -20 -115 -30 -185 -127 -304
-318 -390 -230 -102 -490 -78 -627 60 -65 65 -90 131 -86 228 4 84 17 124 67
192 77 107 199 186 352 226 184 49 346 25 482 -70 34 -24 34 -24 57 -56 10
-13 20 -21 23 -19 4 5 17 64 30 139 2 14 11 68 20 120 9 52 24 140 35 195 10
55 21 118 24 140 4 22 14 78 22 125 22 117 21 110 29 160 4 25 9 54 11 65 2
11 8 45 13 75 18 103 131 745 136 770 3 14 7 39 10 55 3 17 7 41 10 55 3 14 7
41 10 60 22 131 87 485 90 490 3 4 19 5 37 1 32 -7 32 -7 34 -71z" />
    <path d="M3145 5989 c-38 -3 -110 -10 -160 -13 -49 -4 -108 -9 -130 -11 -65
-7 -145 -14 -220 -20 -38 -3 -90 -8 -115 -10 -122 -12 -250 -23 -350 -30 -206
-15 -258 -34 -296 -106 -22 -43 -21 -152 1 -339 3 -19 7 -69 10 -110 11 -131
14 -174 20 -232 6 -65 12 -134 20 -235 3 -37 8 -84 10 -103 2 -19 7 -75 10
-125 3 -49 8 -101 10 -115 2 -14 7 -59 10 -100 3 -41 8 -95 10 -120 3 -25 7
-81 11 -125 4 -44 8 -91 9 -105 1 -14 6 -61 9 -105 4 -44 9 -98 11 -120 2 -22
7 -76 10 -120 3 -44 8 -91 10 -105 2 -14 7 -68 10 -120 4 -52 8 -106 10 -120
2 -14 7 -61 10 -105 6 -84 10 -123 19 -220 3 -33 8 -87 11 -120 11 -133 16
-191 30 -340 2 -27 7 -81 10 -120 3 -38 7 -92 10 -120 3 -27 7 -77 10 -110 3
-33 7 -82 10 -110 3 -27 7 -81 10 -120 3 -38 8 -95 10 -125 11 -124 15 -167
20 -210 2 -25 7 -75 10 -112 3 -38 7 -96 10 -130 3 -35 7 -83 9 -108 9 -101
20 -143 50 -187 50 -74 81 -85 209 -78 59 4 116 8 125 10 9 1 55 6 102 9 47 4
105 9 130 11 140 12 179 16 220 20 25 2 81 7 125 11 44 3 96 7 115 9 19 2 71
6 115 10 44 3 96 8 115 10 48 5 142 14 220 20 36 3 85 7 110 10 25 2 81 7 125
10 44 3 91 8 105 10 14 2 63 7 110 10 47 4 101 8 120 10 124 12 209 18 232 18
52 -1 18 14 -59 27 -43 7 -85 14 -94 15 -9 2 -32 6 -50 9 -19 3 -45 8 -59 11
-31 6 -123 23 -170 30 -19 3 -123 21 -230 40 -107 19 -208 37 -225 40 -16 3
-41 7 -55 10 -14 3 -38 7 -55 10 -16 2 -66 11 -110 19 -44 8 -93 17 -110 20
-42 6 -200 34 -260 46 -27 5 -66 12 -85 14 -48 8 -91 15 -116 21 -12 3 -39 7
-60 11 -98 15 -187 34 -211 46 -15 7 -40 35 -57 61 -35 56 -41 117 -21 222 7
39 16 88 19 110 3 22 8 51 11 65 13 61 16 77 21 110 2 19 7 46 10 60 2 14 6
36 9 50 2 14 18 99 34 190 16 91 32 185 36 210 3 25 8 52 10 60 2 8 7 31 10
50 3 19 10 61 16 92 5 32 12 70 15 85 2 16 6 37 9 49 3 12 7 39 10 60 4 21 8
50 11 64 3 14 16 86 29 160 13 74 25 149 28 165 3 17 10 55 16 85 6 30 13 71
16 90 3 19 8 46 10 60 8 36 12 59 20 110 4 25 9 54 11 65 2 11 9 47 14 80 15
89 20 117 27 150 3 17 7 39 9 50 5 38 65 380 69 395 2 8 6 29 9 45 7 42 57
335 62 360 4 21 21 114 28 155 2 14 11 63 20 110 8 47 17 99 20 115 17 100 47
272 51 285 2 8 6 32 9 52 3 21 13 77 21 125 9 49 18 106 21 128 6 47 10 46
-101 34z" />
    <path d="M1755 5407 c-16 -5 -57 -20 -90 -32 -33 -13 -143 -53 -245 -90 -372
-135 -405 -147 -425 -155 -11 -5 -137 -51 -279 -102 -267 -96 -304 -116 -327
-175 -24 -64 -20 -91 48 -278 22 -60 70 -193 107 -295 37 -102 83 -225 101
-275 19 -49 73 -198 120 -330 48 -132 90 -249 95 -260 7 -16 589 -1617 940
-2585 113 -311 120 -327 159 -367 54 -56 140 -80 189 -53 9 5 82 32 162 61 80
28 186 66 235 84 505 182 713 258 730 265 11 5 45 18 75 28 47 17 628 229 775
284 l50 18 -96 -5 c-53 -3 -107 -8 -120 -10 -13 -2 -62 -6 -109 -10 -47 -3
-98 -8 -115 -10 -16 -3 -66 -7 -110 -10 -44 -2 -100 -7 -125 -10 -25 -2 -76
-7 -115 -10 -38 -3 -90 -8 -115 -10 -25 -3 -72 -7 -105 -10 -33 -3 -85 -7
-115 -10 -30 -3 -84 -7 -120 -10 -36 -3 -85 -7 -110 -10 -25 -2 -79 -7 -120
-10 -41 -4 -91 -8 -110 -10 -19 -2 -73 -7 -120 -10 -47 -4 -101 -8 -120 -10
-50 -5 -119 35 -152 88 -31 50 -36 79 -53 277 -3 41 -8 95 -10 120 -3 25 -7
74 -10 110 -3 36 -7 88 -10 115 -9 96 -15 161 -20 235 -3 41 -7 93 -10 115 -5
48 -13 138 -30 345 -3 41 -8 93 -10 115 -2 22 -7 74 -11 115 -3 41 -8 91 -10
110 -1 19 -6 69 -9 110 -3 41 -7 93 -10 115 -2 22 -7 74 -10 115 -3 41 -8 96
-10 123 -14 133 -17 170 -30 327 -8 94 -18 206 -20 235 -2 17 -6 66 -9 110 -4
44 -9 98 -11 120 -6 62 -14 142 -20 230 -3 44 -8 96 -10 115 -2 19 -6 62 -9
95 -10 112 -16 180 -21 245 -9 103 -14 161 -19 215 -13 143 -23 259 -31 358
-5 68 -16 161 -18 163 -1 1 -15 -3 -32 -9z" />
  </g>
</svg>
