<?xml version="1.0" encoding="UTF-8" standalone="no"?>
<!DOCTYPE svg PUBLIC "-//W3C//DTD SVG 1.1//EN" "http://www.w3.org/Graphics/SVG/1.1/DTD/svg11.dtd">
<svg version="1.1" xmlns="http://www.w3.org/2000/svg" xmlns:xlink="http://www.w3.org/1999/xlink" viewBox="0 0 16 16">
  <g fill="#000">
    <path d="M5.182 14.418c-.222.024-.46-.217-.484-.492L3.723 2.72.28 3.97c-.207.083-.344.333-.25.583l4.002 11.073c.09.263.383.434.592.354L10.04 14l-4.858.418z"/>
    <path d="M5.99 12.78c-.22-.04-.387-.333-.342-.607L7.574 1.195l-3.292.29c-.217.022-.417.226-.392.5L4.915 13.71c.02.27.258.512.48.49l5.75-.5-5.155-.915v-.004z"/>
    <path d="M15.708 1.295L8.465.003C8.25-.027 8 .128 7.957.395L5.915 11.993c-.04.276.125.568.346.61l7.24 1.273c.23.042.42-.188.46-.458l2.03-11.602c.06-.27-.06-.48-.28-.52zm-2.417 6.85c-.15.678-.51 1.29-.89 1.865l-.03-.03c1.09-1.79.97-3.686-.683-5.06l-.846 4.81c-.184 1.072-2.29 1.6-2.666.4-.392-1.25 1.916-1.936 2.567-.957l1.14-6.52.076.017.05.013v.008c0 1.92 1.75 3.48 1.29 5.46-.064.31.076-.3 0 0z"/>
  </g>
</svg>
