<?xml version="1.0" standalone="no"?>
<!DOCTYPE svg PUBLIC "-//W3C//DTD SVG 20010904//EN"
 "http://www.w3.org/TR/2001/REC-SVG-20010904/DTD/svg10.dtd">
<svg version="1.0" xmlns="http://www.w3.org/2000/svg"
 width="700.000000pt" height="700.000000pt" viewBox="0 0 700.000000 700.000000"
 preserveAspectRatio="xMidYMid meet">
<metadata>
Created by potrace 1.11, written by Peter Selinger 2001-2013
</metadata>
<g transform="translate(0.000000,700.000000) scale(0.100000,-0.100000)"
fill="#000000" stroke="none">
<path d="M3590 6193 c-35 -13 -73 -48 -85 -78 -14 -31 -35 -137 -71 -355 -3
-14 -7 -36 -9 -50 -3 -14 -7 -36 -10 -50 -18 -109 -36 -208 -39 -225 -2 -11
-9 -52 -16 -92 -6 -39 -13 -77 -14 -85 -7 -36 -16 -86 -21 -113 -3 -16 -18
-104 -34 -195 -30 -167 -38 -211 -47 -265 -2 -16 -7 -43 -11 -60 -3 -16 -7
-39 -8 -50 -3 -18 -18 -103 -29 -161 -2 -12 -7 -39 -10 -60 -4 -22 -11 -61
-16 -89 -13 -66 -19 -103 -26 -145 -2 -19 -7 -46 -10 -60 -2 -14 -7 -38 -9
-55 -3 -16 -12 -64 -20 -105 -8 -41 -19 -102 -24 -135 -5 -33 -19 -112 -30
-175 -11 -63 -34 -194 -51 -290 -17 -96 -32 -182 -35 -190 -2 -8 -6 -33 -10
-55 -6 -47 -28 -169 -70 -407 -3 -16 -7 -40 -10 -55 -3 -16 -19 -107 -35 -203
-17 -96 -33 -186 -36 -200 -15 -81 -18 -110 -17 -152 1 -26 9 -60 17 -76 14
-27 69 -81 84 -83 4 0 16 -2 27 -4 87 -16 153 -28 172 -30 11 -2 29 -5 40 -9
10 -3 38 -8 63 -11 25 -3 52 -8 60 -10 8 -3 33 -7 55 -10 22 -2 63 -9 90 -15
28 -5 66 -12 85 -15 19 -3 82 -14 140 -25 58 -10 119 -21 135 -24 27 -4 294
-51 355 -62 14 -2 41 -7 60 -10 19 -3 42 -7 51 -10 9 -2 34 -7 55 -10 22 -2
77 -12 124 -20 47 -9 96 -18 110 -20 14 -3 48 -9 75 -14 28 -5 64 -12 80 -15
17 -3 41 -7 55 -9 14 -3 117 -21 230 -41 113 -19 216 -37 230 -40 13 -2 42 -7
64 -11 22 -3 43 -7 46 -9 9 -5 113 -18 144 -18 39 1 76 31 103 84 19 36 83
350 118 579 4 30 54 313 62 355 3 17 6 37 8 45 1 8 5 29 8 45 4 17 9 46 12 65
3 19 30 175 60 345 30 171 57 321 59 335 90 509 136 772 140 801 3 20 7 42 10
50 3 8 7 32 10 54 3 22 8 51 10 65 10 50 68 375 71 395 1 11 15 88 29 170 31
170 44 245 52 294 3 18 8 43 10 55 2 11 7 35 9 51 3 17 12 66 20 110 53 298
55 335 16 382 -30 35 -25 34 -391 98 -59 11 -131 23 -225 40 -49 9 -103 18
-120 21 -16 3 -37 7 -45 9 -8 2 -33 6 -55 9 -22 4 -62 11 -90 16 -27 5 -63 12
-80 14 -33 6 -185 33 -225 40 -14 3 -93 17 -175 31 -83 14 -162 27 -175 30
-28 5 -169 30 -788 139 -197 35 -251 40 -282 29z"/>
<path d="M3307 5794 c-1 -1 -38 -5 -82 -9 -44 -4 -96 -8 -115 -10 -19 -2 -69
-6 -110 -9 -120 -10 -238 -20 -350 -31 -25 -3 -75 -7 -112 -10 -36 -2 -88 -7
-115 -9 -26 -3 -79 -8 -118 -11 -135 -10 -175 -30 -205 -99 -18 -41 -19 -71
-6 -203 3 -35 8 -91 11 -125 5 -58 9 -100 20 -218 2 -25 7 -76 10 -115 3 -38
8 -97 11 -130 3 -33 7 -78 9 -100 3 -45 14 -166 20 -235 2 -25 7 -76 10 -115
6 -77 13 -150 20 -235 14 -151 23 -252 30 -330 3 -36 7 -87 10 -115 2 -27 7
-81 10 -120 3 -38 8 -88 10 -110 2 -22 7 -71 10 -110 3 -38 8 -88 10 -110 2
-22 7 -76 10 -120 4 -44 8 -98 10 -120 3 -22 7 -71 10 -110 3 -38 8 -88 10
-110 2 -22 7 -76 10 -120 3 -44 8 -98 10 -120 2 -22 7 -71 10 -110 3 -38 8
-88 10 -110 2 -22 7 -70 10 -107 12 -162 16 -206 20 -248 7 -69 14 -149 19
-210 5 -51 11 -119 21 -232 10 -116 85 -198 175 -193 56 4 194 15 231 19 39 5
154 15 344 30 39 3 88 8 110 10 60 6 160 15 250 22 44 3 91 7 105 9 14 2 63 7
110 10 47 4 99 8 115 10 17 1 66 6 110 9 44 4 94 9 110 11 17 2 75 7 130 10
55 4 109 9 120 11 17 3 179 16 213 17 27 1 -5 15 -45 21 -22 3 -52 7 -65 10
-12 3 -39 8 -58 11 -19 2 -62 9 -95 15 -33 6 -73 13 -90 16 -90 16 -413 74
-431 78 -12 2 -39 7 -60 10 -77 12 -329 57 -344 61 -8 2 -33 6 -55 10 -22 3
-67 10 -100 16 -33 6 -71 13 -85 15 -14 3 -47 9 -75 14 -27 6 -66 12 -85 15
-94 12 -185 35 -209 52 -14 11 -36 39 -49 64 -19 36 -22 55 -18 104 2 33 7 69
9 80 4 18 8 42 23 133 2 12 9 49 14 82 6 33 13 72 16 87 2 16 7 42 11 58 4 17
7 39 9 50 1 11 7 48 13 82 7 35 14 75 17 90 3 16 7 39 9 53 3 14 21 117 40
230 20 113 44 252 55 310 10 58 21 121 24 140 9 53 16 93 22 111 2 9 7 34 9
55 3 22 14 86 24 144 11 58 22 119 24 135 3 17 12 73 21 125 22 124 22 121 40
220 8 47 18 101 21 120 6 39 16 94 21 125 4 20 51 286 59 335 6 30 23 126 29
156 2 12 7 39 10 60 6 34 48 273 62 344 2 14 7 41 10 60 2 19 7 46 10 60 2 14
7 37 9 53 9 53 25 142 30 167 3 14 8 48 11 77 6 49 5 52 -15 50 -12 -1 -23 -2
-24 -3z"/>
<path d="M1995 5260 c-11 -5 -184 -68 -385 -140 -201 -72 -376 -136 -390 -142
-14 -5 -106 -39 -205 -75 -217 -78 -237 -89 -263 -146 -21 -48 -14 -97 32
-222 24 -66 81 -221 126 -345 45 -124 88 -241 95 -260 13 -33 68 -183 260
-715 48 -132 102 -280 120 -330 18 -49 45 -121 58 -160 14 -38 44 -119 66
-180 86 -235 306 -839 372 -1025 39 -107 74 -204 79 -215 5 -11 20 -51 33 -90
14 -38 41 -113 60 -165 19 -52 45 -124 58 -160 12 -36 30 -76 38 -90 33 -52
96 -92 145 -92 17 0 114 30 216 67 102 37 232 84 290 105 58 21 148 54 200 73
52 19 178 65 280 102 102 37 246 89 320 116 74 27 173 63 220 80 125 45 151
55 195 72 22 9 68 26 103 38 34 12 62 24 62 26 0 3 -35 2 -77 -2 -43 -4 -94
-8 -113 -10 -19 -1 -69 -5 -110 -9 -41 -4 -95 -9 -120 -11 -25 -2 -76 -7 -115
-10 -38 -3 -95 -8 -125 -11 -30 -2 -77 -6 -105 -9 -27 -2 -81 -7 -120 -10 -38
-3 -88 -7 -110 -10 -22 -2 -76 -7 -120 -10 -44 -3 -93 -8 -110 -10 -16 -2 -68
-7 -115 -10 -47 -4 -98 -8 -115 -10 -135 -16 -233 -17 -261 -2 -67 35 -97 101
-109 237 -3 41 -8 95 -10 120 -2 25 -7 79 -11 120 -3 41 -8 93 -10 115 -2 22
-6 74 -9 115 -3 41 -8 91 -10 110 -2 19 -7 69 -10 110 -3 41 -8 91 -10 110 -2
19 -7 73 -11 120 -3 47 -7 101 -9 120 -2 19 -7 71 -10 115 -4 44 -8 94 -10
110 -1 17 -6 71 -9 120 -4 50 -9 101 -11 115 -2 14 -7 64 -10 113 -4 48 -8 95
-10 105 -2 10 -6 58 -9 108 -4 49 -9 105 -11 124 -3 19 -7 67 -10 105 -3 39
-8 93 -10 120 -3 28 -7 79 -10 115 -3 36 -7 90 -10 120 -3 30 -7 84 -10 120
-3 36 -8 86 -10 113 -3 26 -7 68 -10 95 -2 26 -7 81 -10 122 -3 41 -8 95 -10
120 -2 25 -7 77 -10 115 -3 39 -7 84 -9 100 -2 17 -7 73 -11 125 -4 52 -8 106
-10 120 -2 14 -7 64 -11 110 -3 47 -8 96 -9 110 -2 14 -3 44 -4 68 -1 44 -3
46 -36 32z"/>
</g>
</svg>
