<?xml version="1.0" encoding="utf-8"?>
<!DOCTYPE svg PUBLIC "-//W3C//DTD SVG 1.1//EN" "http://www.w3.org/Graphics/SVG/1.1/DTD/svg11.dtd">
<svg version="1.1" xmlns="http://www.w3.org/2000/svg" xmlns:xlink="http://www.w3.org/1999/xlink" width="558px" height="558px" viewBox="0 0 558 558" enable-background="new 0 0 558 558">
  <g id="background">
    <path fill="#00aeed" d="M0,458c0,55.229,44.771,100,100,100h358c55.229,0,100-44.771,100-100V100C558,44.771,513.229,0,458,0H100C44.771,0,0,44.771,0,100V458z" />
  </g>
  <g id="cards">
    <path id="back" fill="#fff" d="M187.079,487.483c-7.023,0.615-14.575-6.97-15.333-15.654l-30.905-353.032L31.828,158.481c-6.622,2.41-11.044,10.319-8.063,18.506L150.59,525.382c2.98,8.191,12.238,13.567,18.862,11.153l171.825-62.546L187.079,487.483z" />
    <path id="mid" fill="#fff" d="M212.65,435.678c-6.942-1.22-12.272-10.508-10.758-19.091l60.994-346.025l-104.123,9.116c-7.021,0.612-13.338,7.107-12.579,15.787l32.334,369.35c0.758,8.681,8.308,16.269,15.331,15.658l182.342-15.964L212.65,435.678z" />
    <path id="front" fill="#fff" d="M520.693,74.081L291.11,33.611c-6.938-1.226-14.726,3.415-16.236,11.995l-64.361,365.128c-1.515,8.585,3.813,17.871,10.758,19.095l229.579,40.468c6.933,1.224,12.858-6.08,14.374-14.662l64.361-365.127C531.098,81.923,527.63,75.304,520.693,74.081z M444.198,289.752c-2.238,9.576-5.804,19.143-10.689,28.707c-4.887,9.565-10.819,19.59-17.784,30.065l-0.924-0.988c6.166-10.066,11.09-19.855,14.779-29.356c3.688-9.503,6.331-18.777,7.926-27.824c3.439-19.514,1.208-37.969-6.699-55.371c-7.566-16.65-20.197-32.219-37.859-46.715L366.276,339.53c-1.001,5.679-3.457,10.777-7.36,15.302c-3.913,4.522-8.642,8.266-14.189,11.217c-5.554,2.958-11.55,5.055-17.984,6.295c-6.438,1.244-12.585,1.348-18.439,0.315c-4.436-0.781-8.506-2.092-12.201-3.934c-3.701-1.842-6.768-4.165-9.197-6.976c-2.433-2.802-4.203-5.995-5.308-9.575c-1.109-3.578-1.285-7.497-0.534-11.757c0.969-5.496,3.405-10.512,7.315-15.034c3.906-4.525,8.644-8.306,14.212-11.353c5.565-3.038,11.56-5.137,17.984-6.293c6.42-1.153,12.562-1.216,18.416-0.183c5.322,0.938,10.049,2.643,14.188,5.109c4.134,2.469,7.432,5.563,9.886,9.287l36.225-205.432l3.459,0.61l0,0l2.661,0.47l-0.048,0.266c-0.437,8.703,0.573,17.756,3.033,27.149c2.459,9.397,5.459,18.844,8.996,28.338c3.537,9.498,7.377,18.86,11.51,28.095c4.132,9.234,7.655,18.044,10.568,26.42c4.007,11.502,6.357,22.296,7.047,32.385C447.207,270.347,446.434,280.179,444.198,289.752z" />
  </g>
</svg>
