<?xml version="1.0" encoding="utf-8"?>
<!-- Generator: Adobe Illustrator 16.0.0, SVG Export Plug-In . SVG Version: 6.00 Build 0)  -->
<!DOCTYPE svg PUBLIC "-//W3C//DTD SVG 1.1//EN" "http://www.w3.org/Graphics/SVG/1.1/DTD/svg11.dtd">
<svg version="1.1" id="Layer_1" xmlns="http://www.w3.org/2000/svg" xmlns:xlink="http://www.w3.org/1999/xlink" x="0px" y="0px"
	 width="558px" height="558px" viewBox="0 0 558 558" enable-background="new 0 0 558 558" xml:space="preserve">
<g display="none">
	<path display="inline" fill="#00AEED" d="M75,548c-35.841,0-65-29.159-65-65V75c0-35.841,29.159-65,65-65h408
		c35.841,0,65,29.159,65,65v408c0,35.841-29.159,65-65,65H75z"/>
	<path display="inline" fill="#1A1A1A" d="M483,20c30.327,0,55,24.673,55,55v408c0,30.327-24.673,55-55,55H75
		c-30.327,0-55-24.673-55-55V75c0-30.327,24.673-55,55-55H483 M483,0H75C33.579,0,0,33.579,0,75v408c0,41.422,33.579,75,75,75h408
		c41.422,0,75-33.578,75-75V75C558,33.579,524.422,0,483,0L483,0z"/>
</g>
<g>
	<path id="Back" fill="#FFFFFF" d="M195.197,469.1c-6.385,0.56-13.25-6.336-13.939-14.231l-28.096-320.938L54.06,170.007
		c-6.02,2.19-10.04,9.381-7.331,16.824l115.296,316.722c2.709,7.447,11.125,12.334,17.147,10.14l156.205-56.86L195.197,469.1z"/>
	<path id="Mid" fill="#FFFFFF" d="M218.443,422.004c-6.311-1.109-11.157-9.553-9.779-17.355L264.113,90.08l-94.658,8.288
		c-6.382,0.557-12.125,6.461-11.435,14.353l29.394,335.771c0.689,7.892,7.553,14.79,13.938,14.235l165.765-14.513L218.443,422.004z"
		/>
	<path id="Front" fill="#FFFFFF" d="M498.482,93.279l-208.712-36.79c-6.308-1.114-13.386,3.104-14.76,10.904L216.5,399.328
		c-1.377,7.805,3.467,16.246,9.78,17.358l208.708,36.789c6.303,1.112,11.689-5.527,13.067-13.329l58.511-331.934
		C507.941,100.409,504.789,94.391,498.482,93.279z M428.941,289.344c-2.034,8.706-5.275,17.402-9.718,26.098
		s-9.835,17.809-16.167,27.332l-0.84-0.898c5.605-9.151,10.082-18.051,13.436-26.688c3.353-8.64,5.756-17.07,7.205-25.295
		c3.127-17.74,1.099-34.517-6.09-50.337c-6.879-15.136-18.361-29.29-34.418-42.468l-24.246,137.509
		c-0.91,5.163-3.143,9.798-6.691,13.911c-3.557,4.111-7.855,7.514-12.899,10.197c-5.049,2.688-10.5,4.595-16.35,5.723
		c-5.853,1.131-11.44,1.225-16.763,0.286c-4.032-0.71-7.732-1.901-11.092-3.576c-3.365-1.674-6.152-3.786-8.361-6.341
		c-2.212-2.547-3.821-5.45-4.825-8.705c-1.009-3.253-1.168-6.815-0.485-10.688c0.881-4.997,3.096-9.557,6.65-13.668
		c3.551-4.114,7.857-7.551,12.92-10.32c5.06-2.762,10.509-4.67,16.35-5.721c5.836-1.049,11.419-1.105,16.741-0.166
		c4.839,0.853,9.136,2.402,12.898,4.645c3.759,2.244,6.757,5.057,8.987,8.443l32.932-186.756l3.145,0.555l0,0l2.419,0.427
		l-0.043,0.242c-0.397,7.912,0.521,16.141,2.757,24.681c2.235,8.543,4.963,17.131,8.179,25.762
		c3.216,8.634,6.706,17.146,10.463,25.541s6.96,16.403,9.608,24.018c3.643,10.457,5.779,20.269,6.406,29.441
		C431.677,271.703,430.974,280.641,428.941,289.344z"/>
</g>
</svg>
