<?xml version="1.0" encoding="utf-8" standalone="no"?>
<!DOCTYPE svg PUBLIC "-//W3C//DTD SVG 1.1//EN" "http://www.w3.org/Graphics/SVG/1.1/DTD/svg11.dtd">
<svg version="1.1" xmlns="http://www.w3.org/2000/svg" xmlns:xlink="http://www.w3.org/1999/xlink" viewBox="0 0 384 384">
  <g id="cards" fill="#fff">
    <path id="bottomcard" d="M124.4 346c-5.3.6-11-5.2-11.6-11.8l-23.4-269-82.6 30c-5 2-8.3 8-6 14l96 265.8c2.2 6.3 9.2 10.4 14.2 8.5L241 336l-116.6 10z"/>
    <path id="midcard" d="M143.8 306.7c-5.3-1-9.3-8-8.2-14.6l46.2-263.5-79 7c-5.2.5-10 5.4-9.4 12L118 329c.5 6.5 6.2 12.3 11.5 11.8l138-12-123.7-22z"/>
    <path id="topcard" d="M377 31L203.2 0C198-.7 192 3 191 9.4l-49 278.4c-1 6.6 3 13.6 8.3 14.6L324 333c5.4 1 10-4.5 11-11l48.7-278.5C385 37 382.2 32 377 31zm-58 164.4c-3.6 16.3-12.3 31-21.5 44.8l-.7-.7C323 196.5 320 151 280.3 118L260 233.5c-4.4 25.7-55 38.4-64 9.6-9.4-30 46-46.5 61.6-23L285 63.6l1.8.4 1.2.3v.2c0 46 42 83.5 31 131-1.6 7.3 1.8-7.3 0 0z"/>
  </g>
</svg>
